solid OpenSCAD_Model
  facet normal -1 0 0
    outer loop
      vertex -4 17.5 -17.1464
      vertex -4 1.5 -15
      vertex -4 17.5 -15
    endloop
  endfacet
  facet normal -1 0 0
    outer loop
      vertex -4 1.5 -15
      vertex -4 -1.5 -15
      vertex -4 1.5 15
    endloop
  endfacet
  facet normal -1 0 0
    outer loop
      vertex -4 17.5 -17.1464
      vertex -4 -1.5 -15
      vertex -4 1.5 -15
    endloop
  endfacet
  facet normal -1 0 0
    outer loop
      vertex -4 -17.5 -17.1464
      vertex -4 -1.5 -15
      vertex -4 17.5 -17.1464
    endloop
  endfacet
  facet normal -1 -0 0
    outer loop
      vertex -4 -1.5 -15
      vertex -4 -17.5 -17.1464
      vertex -4 -17.5 -15
    endloop
  endfacet
  facet normal -1 -0 0
    outer loop
      vertex -4 1.5 15
      vertex -4 -1.5 -15
      vertex -4 -1.5 15
    endloop
  endfacet
  facet normal -0 0 1
    outer loop
      vertex -4 -1.5 -15
      vertex -3 -17.5 -15
      vertex -3 -1.5 -15
    endloop
  endfacet
  facet normal 0 0 1
    outer loop
      vertex -3 -17.5 -15
      vertex -4 -1.5 -15
      vertex -4 -17.5 -15
    endloop
  endfacet
  facet normal -0 0 1
    outer loop
      vertex -4 17.5 -15
      vertex -3 1.5 -15
      vertex -3 17.5 -15
    endloop
  endfacet
  facet normal 0 0 1
    outer loop
      vertex -3 1.5 -15
      vertex -4 17.5 -15
      vertex -4 1.5 -15
    endloop
  endfacet
  facet normal -1 0 0
    outer loop
      vertex -3 -17.5 1.5
      vertex -3 -1.5 -15
      vertex -3 -17.5 -15
    endloop
  endfacet
  facet normal -1 0 0
    outer loop
      vertex -3 -1.5 -15
      vertex -3 -17.5 1.5
      vertex -3 -1.5 15
    endloop
  endfacet
  facet normal -1 -0 0
    outer loop
      vertex -3 -1.5 15
      vertex -3 -17.5 1.5
      vertex -3 -17.5 15
    endloop
  endfacet
  facet normal -1 0 0
    outer loop
      vertex -3 17.5 -18
      vertex -3 21 -15.7715
      vertex -3 17.5 -19.2715
    endloop
  endfacet
  facet normal -1 0 0
    outer loop
      vertex -3 17.5 -15
      vertex -3 21 -15.7715
      vertex -3 17.5 -18
    endloop
  endfacet
  facet normal -1 0 0
    outer loop
      vertex -3 21 -15.7715
      vertex -3 17.5 -15
      vertex -3 21 1.5
    endloop
  endfacet
  facet normal -1 0 0
    outer loop
      vertex -3 17.5 -15
      vertex -3 17.5 1.5
      vertex -3 21 1.5
    endloop
  endfacet
  facet normal -1 0 0
    outer loop
      vertex -3 1.5 -15
      vertex -3 17.5 1.5
      vertex -3 17.5 -15
    endloop
  endfacet
  facet normal -1 0 0
    outer loop
      vertex -3 1.5 15
      vertex -3 17.5 1.5
      vertex -3 1.5 -15
    endloop
  endfacet
  facet normal -1 0 0
    outer loop
      vertex -3 17.5 1.5
      vertex -3 1.5 15
      vertex -3 17.5 15
    endloop
  endfacet
  facet normal -1 0 0
    outer loop
      vertex -3 -17.5 -19.2715
      vertex -3 17.5 -19.2715
      vertex -3 17.5 -42
    endloop
  endfacet
  facet normal -1 0 0
    outer loop
      vertex -3 -17.5 -19.2715
      vertex -3 17.5 -42
      vertex -3 -17.5 -42
    endloop
  endfacet
  facet normal -1 0 0
    outer loop
      vertex -3 17.5 -19.2715
      vertex -3 -17.5 -19.2715
      vertex -3 17.5 -18
    endloop
  endfacet
  facet normal -1 0 0
    outer loop
      vertex -3 -17.5 -19.2715
      vertex -3 -17.5 -18
      vertex -3 17.5 -18
    endloop
  endfacet
  facet normal -1 0 0
    outer loop
      vertex -3 -21 -15.7715
      vertex -3 -17.5 -18
      vertex -3 -17.5 -19.2715
    endloop
  endfacet
  facet normal -1 0 0
    outer loop
      vertex -3 -17.5 -18
      vertex -3 -21 -15.7715
      vertex -3 -17.5 -15
    endloop
  endfacet
  facet normal -1 0 0
    outer loop
      vertex -3 -21 1.5
      vertex -3 -17.5 -15
      vertex -3 -21 -15.7715
    endloop
  endfacet
  facet normal -1 0 0
    outer loop
      vertex -3 -17.5 -15
      vertex -3 -21 1.5
      vertex -3 -17.5 1.5
    endloop
  endfacet
  facet normal 0 0 -1
    outer loop
      vertex -3.14645 -17.5 -18
      vertex -3 17.5 -18
      vertex -3 -17.5 -18
    endloop
  endfacet
  facet normal -0 0 -1
    outer loop
      vertex -3 17.5 -18
      vertex -3.14645 -17.5 -18
      vertex -3.14645 17.5 -18
    endloop
  endfacet
  facet normal 0 1 0
    outer loop
      vertex 15 -17.5 1.5
      vertex 10 -17.5 -2
      vertex 10 -17.5 1.5
    endloop
  endfacet
  facet normal 0 1 0
    outer loop
      vertex 10 -17.5 -2
      vertex 4.5005 -17.5 -2.0005
      vertex 4.5005 -17.5 -2
    endloop
  endfacet
  facet normal 0 1 -0
    outer loop
      vertex 15 -17.5 -5.16152
      vertex 10 -17.5 -2
      vertex 15 -17.5 1.5
    endloop
  endfacet
  facet normal 0 1 0
    outer loop
      vertex 3 -17.5 -17.1615
      vertex 10 -17.5 -2
      vertex 15 -17.5 -5.16152
    endloop
  endfacet
  facet normal 0 1 0
    outer loop
      vertex 10 -17.5 -2
      vertex 3 -17.5 -17.1615
      vertex 4.5005 -17.5 -2.0005
    endloop
  endfacet
  facet normal 0 1 0
    outer loop
      vertex 4.5005 -17.5 -2.0005
      vertex 3 -17.5 -17.1615
      vertex 3 -17.5 -2.0005
    endloop
  endfacet
  facet normal 0 -1 0
    outer loop
      vertex -0.5005 -17.5 -0.9995
      vertex -0.5005 -17.5 -2.0005
      vertex 2.4995 -17.5 -0.9995
    endloop
  endfacet
  facet normal 0 -1 0
    outer loop
      vertex -3 -17.5 15
      vertex -4 -17.5 18
      vertex -4 -17.5 15.8536
    endloop
  endfacet
  facet normal 0 -1 0
    outer loop
      vertex -3 -17.5 15
      vertex -4 -17.5 15.8536
      vertex -3.14645 -17.5 15
    endloop
  endfacet
  facet normal 0 -1 0
    outer loop
      vertex -4 -17.5 18
      vertex -3 -17.5 15
      vertex 3 -17.5 18
    endloop
  endfacet
  facet normal 0 -1 0
    outer loop
      vertex 2.4995 -17.5 1.5
      vertex -3 -17.5 15
      vertex -3 -17.5 1.5
    endloop
  endfacet
  facet normal 0 -1 0
    outer loop
      vertex -3 -17.5 15
      vertex 2.4995 -17.5 1.5
      vertex 3 -17.5 18
    endloop
  endfacet
  facet normal 0 -1 0
    outer loop
      vertex 3 -17.5 -2.0005
      vertex 2.4995 -17.5 1.5
      vertex 2.4995 -17.5 -0.9995
    endloop
  endfacet
  facet normal 0 -1 0
    outer loop
      vertex 2.4995 -17.5 1.5
      vertex 3 -17.5 -2.0005
      vertex 3 -17.5 18
    endloop
  endfacet
  facet normal 0 -1 0
    outer loop
      vertex 3 -17.5 -2.0005
      vertex 2.4995 -17.5 -0.9995
      vertex -0.5005 -17.5 -2.0005
    endloop
  endfacet
  facet normal 0 -1 0
    outer loop
      vertex -3 -17.5 -19.2715
      vertex -3 -17.5 -42
      vertex 0.89 -17.5 -19.2715
    endloop
  endfacet
  facet normal 0 -1 0
    outer loop
      vertex 3 -17.5 -42
      vertex 0.89 -17.5 -19.2715
      vertex -3 -17.5 -42
    endloop
  endfacet
  facet normal 0 -1 0
    outer loop
      vertex 0.89 -17.5 -19.2715
      vertex 3 -17.5 -42
      vertex 3 -17.5 -17.1615
    endloop
  endfacet
  facet normal 0 -1 0
    outer loop
      vertex -4 -17.5 -17.1464
      vertex -3 -17.5 -15
      vertex -4 -17.5 -15
    endloop
  endfacet
  facet normal 0 -1 0
    outer loop
      vertex -3 -17.5 -18
      vertex -4 -17.5 -17.1464
      vertex -3.14645 -17.5 -18
    endloop
  endfacet
  facet normal 0 -1 0
    outer loop
      vertex -4 -17.5 -17.1464
      vertex -3 -17.5 -18
      vertex -3 -17.5 -15
    endloop
  endfacet
  facet normal 0 1 -0
    outer loop
      vertex -3 17.5 15
      vertex -4 17.5 18
      vertex 3 17.5 18
    endloop
  endfacet
  facet normal 0 1 0
    outer loop
      vertex -4 17.5 18
      vertex -3 17.5 15
      vertex -4 17.5 15.8536
    endloop
  endfacet
  facet normal 0 1 0
    outer loop
      vertex 3 17.5 18
      vertex 2.4995 17.5 1.5
      vertex -3 17.5 15
    endloop
  endfacet
  facet normal 0 1 -0
    outer loop
      vertex 3 17.5 -2.0005
      vertex 2.4995 17.5 1.5
      vertex 3 17.5 18
    endloop
  endfacet
  facet normal 0 1 0
    outer loop
      vertex 2.4995 17.5 1.5
      vertex 3 17.5 -2.0005
      vertex 2.4995 17.5 -0.9995
    endloop
  endfacet
  facet normal 0 1 0
    outer loop
      vertex -0.5005 17.5 -2.0005
      vertex 2.4995 17.5 -0.9995
      vertex 3 17.5 -2.0005
    endloop
  endfacet
  facet normal 0 1 0
    outer loop
      vertex 2.4995 17.5 -0.9995
      vertex -0.5005 17.5 -2.0005
      vertex -0.5005 17.5 -0.9995
    endloop
  endfacet
  facet normal 0 1 0
    outer loop
      vertex -4 17.5 15.8536
      vertex -3 17.5 15
      vertex -3.14645 17.5 15
    endloop
  endfacet
  facet normal 0 1 0
    outer loop
      vertex -3 17.5 15
      vertex 2.4995 17.5 1.5
      vertex -3 17.5 1.5
    endloop
  endfacet
  facet normal 0 -1 0
    outer loop
      vertex 4.5005 17.5 -2
      vertex 4.5005 17.5 -2.0005
      vertex 10 17.5 -2
    endloop
  endfacet
  facet normal 0 -1 0
    outer loop
      vertex 10 17.5 -2
      vertex 15 17.5 1.5
      vertex 10 17.5 1.5
    endloop
  endfacet
  facet normal 0 -1 0
    outer loop
      vertex 10 17.5 -2
      vertex 15 17.5 -5.16152
      vertex 15 17.5 1.5
    endloop
  endfacet
  facet normal 0 -1 0
    outer loop
      vertex 3 17.5 -17.1615
      vertex 10 17.5 -2
      vertex 4.5005 17.5 -2.0005
    endloop
  endfacet
  facet normal 0 -1 0
    outer loop
      vertex 3 17.5 -17.1615
      vertex 4.5005 17.5 -2.0005
      vertex 3 17.5 -2.0005
    endloop
  endfacet
  facet normal 0 -1 -0
    outer loop
      vertex 10 17.5 -2
      vertex 3 17.5 -17.1615
      vertex 15 17.5 -5.16152
    endloop
  endfacet
  facet normal 0 1 -0
    outer loop
      vertex 3 17.5 -42
      vertex 0.89 17.5 -19.2715
      vertex 3 17.5 -17.1615
    endloop
  endfacet
  facet normal 0 1 0
    outer loop
      vertex -3 17.5 -42
      vertex 0.89 17.5 -19.2715
      vertex 3 17.5 -42
    endloop
  endfacet
  facet normal 0 1 0
    outer loop
      vertex 0.89 17.5 -19.2715
      vertex -3 17.5 -42
      vertex -3 17.5 -19.2715
    endloop
  endfacet
  facet normal 0 1 0
    outer loop
      vertex -3 17.5 -15
      vertex -4 17.5 -17.1464
      vertex -4 17.5 -15
    endloop
  endfacet
  facet normal 0 1 -0
    outer loop
      vertex -3 17.5 -18
      vertex -4 17.5 -17.1464
      vertex -3 17.5 -15
    endloop
  endfacet
  facet normal 0 1 0
    outer loop
      vertex -4 17.5 -17.1464
      vertex -3 17.5 -18
      vertex -3.14645 17.5 -18
    endloop
  endfacet
  facet normal -0.707107 0 -0.707107
    outer loop
      vertex -3.14645 -17.5 -18
      vertex -4 17.5 -17.1464
      vertex -3.14645 17.5 -18
    endloop
  endfacet
  facet normal -0.707107 -0 -0.707107
    outer loop
      vertex -4 17.5 -17.1464
      vertex -3.14645 -17.5 -18
      vertex -4 -17.5 -17.1464
    endloop
  endfacet
  facet normal -1 0 0
    outer loop
      vertex -4 -17.5 15.8536
      vertex -4 17.5 18
      vertex -4 17.5 15.8536
    endloop
  endfacet
  facet normal -1 -0 0
    outer loop
      vertex -4 17.5 18
      vertex -4 -17.5 15.8536
      vertex -4 -17.5 18
    endloop
  endfacet
  facet normal -0 0 1
    outer loop
      vertex -4 17.5 18
      vertex 3 -17.5 18
      vertex 3 17.5 18
    endloop
  endfacet
  facet normal 0 0 1
    outer loop
      vertex 3 -17.5 18
      vertex -4 17.5 18
      vertex -4 -17.5 18
    endloop
  endfacet
  facet normal 0 0 -1
    outer loop
      vertex -3.14645 -17.5 15
      vertex -3 -1.5 15
      vertex -3 -17.5 15
    endloop
  endfacet
  facet normal -0 0 -1
    outer loop
      vertex -3 -1.5 15
      vertex -3.14645 -17.5 15
      vertex -3.14645 -1.5 15
    endloop
  endfacet
  facet normal 0 0 -1
    outer loop
      vertex -3.14645 1.5 15
      vertex -3 17.5 15
      vertex -3 1.5 15
    endloop
  endfacet
  facet normal -0 0 -1
    outer loop
      vertex -3 17.5 15
      vertex -3.14645 1.5 15
      vertex -3.14645 17.5 15
    endloop
  endfacet
  facet normal -0 0 1
    outer loop
      vertex -4 1.5 15
      vertex -3.14645 -1.5 15
      vertex -3.14645 1.5 15
    endloop
  endfacet
  facet normal 0 0 1
    outer loop
      vertex -3.14645 -1.5 15
      vertex -4 1.5 15
      vertex -4 -1.5 15
    endloop
  endfacet
  facet normal -0.707107 0 -0.707107
    outer loop
      vertex -3.14645 1.5 15
      vertex -4 17.5 15.8536
      vertex -3.14645 17.5 15
    endloop
  endfacet
  facet normal -0.707107 0 -0.707107
    outer loop
      vertex -3.14645 -1.5 15
      vertex -4 17.5 15.8536
      vertex -3.14645 1.5 15
    endloop
  endfacet
  facet normal -0.707107 0 -0.707107
    outer loop
      vertex -4 -17.5 15.8536
      vertex -3.14645 -1.5 15
      vertex -3.14645 -17.5 15
    endloop
  endfacet
  facet normal -0.707107 0 -0.707107
    outer loop
      vertex -3.14645 -1.5 15
      vertex -4 -17.5 15.8536
      vertex -4 17.5 15.8536
    endloop
  endfacet
  facet normal 0 1 0
    outer loop
      vertex 6.94223 10.0005 -38.0005
      vertex 3 10.0005 -38.0005
      vertex 3 10.0005 -34.0583
    endloop
  endfacet
  facet normal 0 0 -1
    outer loop
      vertex 3 10 -38.0005
      vertex 6.94223 10.0005 -38.0005
      vertex 6.94223 10 -38.0005
    endloop
  endfacet
  facet normal -0 0 -1
    outer loop
      vertex 6.94223 10.0005 -38.0005
      vertex 3 10 -38.0005
      vertex 3 10.0005 -38.0005
    endloop
  endfacet
  facet normal 0 0 -1
    outer loop
      vertex 3 -10.0005 -38.0005
      vertex 6.94223 -10 -38.0005
      vertex 6.94223 -10.0005 -38.0005
    endloop
  endfacet
  facet normal -0 0 -1
    outer loop
      vertex 6.94223 -10 -38.0005
      vertex 3 -10.0005 -38.0005
      vertex 3 -10 -38.0005
    endloop
  endfacet
  facet normal 0 -1 0
    outer loop
      vertex 3 -10.0005 -34.0583
      vertex 3 -10.0005 -38.0005
      vertex 6.94223 -10.0005 -38.0005
    endloop
  endfacet
  facet normal 0.707107 0 0.707107
    outer loop
      vertex 6.94223 10.0005 -38.0005
      vertex 6.94173 10 -38
      vertex 6.94223 10 -38.0005
    endloop
  endfacet
  facet normal 0.707107 0 0.707107
    outer loop
      vertex 6.94173 10 -38
      vertex 3 10.0005 -34.0583
      vertex 6.94173 -10 -38
    endloop
  endfacet
  facet normal 0.707107 1.71058e-007 0.707107
    outer loop
      vertex 3 10.0005 -34.0583
      vertex 6.94173 10 -38
      vertex 6.94223 10.0005 -38.0005
    endloop
  endfacet
  facet normal 0.707107 0 0.707107
    outer loop
      vertex 6.94173 -10 -38
      vertex 6.94223 -10.0005 -38.0005
      vertex 6.94223 -10 -38.0005
    endloop
  endfacet
  facet normal 0.707107 -1.71058e-007 0.707107
    outer loop
      vertex 6.94173 -10 -38
      vertex 3 -10.0005 -34.0583
      vertex 6.94223 -10.0005 -38.0005
    endloop
  endfacet
  facet normal 0.707107 -0 0.707107
    outer loop
      vertex 3 -10.0005 -34.0583
      vertex 6.94173 -10 -38
      vertex 3 10.0005 -34.0583
    endloop
  endfacet
  facet normal 0 0 1
    outer loop
      vertex 14 10 -38
      vertex 11.11 0 -38
      vertex 14 -10 -38
    endloop
  endfacet
  facet normal 0 0 1
    outer loop
      vertex 14 10 -38
      vertex 10.9286 0.558395 -38
      vertex 11.11 0 -38
    endloop
  endfacet
  facet normal 0 0 1
    outer loop
      vertex 14 10 -38
      vertex 10.4536 0.903503 -38
      vertex 10.9286 0.558395 -38
    endloop
  endfacet
  facet normal -0 0 1
    outer loop
      vertex 6.94173 10 -38
      vertex 10.4536 0.903503 -38
      vertex 14 10 -38
    endloop
  endfacet
  facet normal 0 0 1
    outer loop
      vertex 10.4536 0.903503 -38
      vertex 6.94173 10 -38
      vertex 9.86643 0.903503 -38
    endloop
  endfacet
  facet normal 0 0 1
    outer loop
      vertex 9.39143 0.558395 -38
      vertex 6.94173 10 -38
      vertex 9.21 0 -38
    endloop
  endfacet
  facet normal 0 0 1
    outer loop
      vertex 9.86643 0.903503 -38
      vertex 6.94173 10 -38
      vertex 9.39143 0.558395 -38
    endloop
  endfacet
  facet normal -0 0 1
    outer loop
      vertex 10.9286 -0.558395 -38
      vertex 14 -10 -38
      vertex 11.11 0 -38
    endloop
  endfacet
  facet normal -0 0 1
    outer loop
      vertex 10.4536 -0.903503 -38
      vertex 14 -10 -38
      vertex 10.9286 -0.558395 -38
    endloop
  endfacet
  facet normal 0 0 1
    outer loop
      vertex 6.94173 -10 -38
      vertex 10.4536 -0.903503 -38
      vertex 9.86643 -0.903503 -38
    endloop
  endfacet
  facet normal 0 0 1
    outer loop
      vertex 6.94173 -10 -38
      vertex 9.86643 -0.903503 -38
      vertex 9.39143 -0.558395 -38
    endloop
  endfacet
  facet normal 0 0 1
    outer loop
      vertex 10.4536 -0.903503 -38
      vertex 6.94173 -10 -38
      vertex 14 -10 -38
    endloop
  endfacet
  facet normal 0 0 1
    outer loop
      vertex 9.21 0 -38
      vertex 6.94173 -10 -38
      vertex 9.39143 -0.558395 -38
    endloop
  endfacet
  facet normal 0 0 1
    outer loop
      vertex 6.94173 -10 -38
      vertex 9.21 0 -38
      vertex 6.94173 10 -38
    endloop
  endfacet
  facet normal 1 -0 0
    outer loop
      vertex 14 -10 -38
      vertex 14 10 -42
      vertex 14 10 -38
    endloop
  endfacet
  facet normal 1 0 0
    outer loop
      vertex 14 10 -42
      vertex 14 -10 -38
      vertex 14 -10 -42
    endloop
  endfacet
  facet normal 0 0 -1
    outer loop
      vertex -3 -17.5 -42
      vertex 3 -10 -42
      vertex 3 -17.5 -42
    endloop
  endfacet
  facet normal 0 0 -1
    outer loop
      vertex 3 -10 -42
      vertex 0.95 0 -42
      vertex 3 10 -42
    endloop
  endfacet
  facet normal 0 0 -1
    outer loop
      vertex 0.768566 0.558395 -42
      vertex 3 10 -42
      vertex 0.95 0 -42
    endloop
  endfacet
  facet normal 0 0 -1
    outer loop
      vertex 3 -10 -42
      vertex 0.768566 -0.558395 -42
      vertex 0.95 0 -42
    endloop
  endfacet
  facet normal 0 0 -1
    outer loop
      vertex 3 -10 -42
      vertex 0.293566 -0.903503 -42
      vertex 0.768566 -0.558395 -42
    endloop
  endfacet
  facet normal 0 0 -1
    outer loop
      vertex 3 -10 -42
      vertex -0.293566 -0.903503 -42
      vertex 0.293566 -0.903503 -42
    endloop
  endfacet
  facet normal 0 -0 -1
    outer loop
      vertex -0.768566 -0.558395 -42
      vertex 3 -10 -42
      vertex -3 -17.5 -42
    endloop
  endfacet
  facet normal 0 0 -1
    outer loop
      vertex 3 -10 -42
      vertex -0.768566 -0.558395 -42
      vertex -0.293566 -0.903503 -42
    endloop
  endfacet
  facet normal -0 0 -1
    outer loop
      vertex -0.768566 -0.558395 -42
      vertex -3 -17.5 -42
      vertex -0.95 0 -42
    endloop
  endfacet
  facet normal 0 0 -1
    outer loop
      vertex 0.293566 0.903503 -42
      vertex 3 10 -42
      vertex 0.768566 0.558395 -42
    endloop
  endfacet
  facet normal 0 0 -1
    outer loop
      vertex -0.293566 0.903503 -42
      vertex 3 10 -42
      vertex 0.293566 0.903503 -42
    endloop
  endfacet
  facet normal 0 0 -1
    outer loop
      vertex -0.768566 0.558395 -42
      vertex 3 10 -42
      vertex -0.293566 0.903503 -42
    endloop
  endfacet
  facet normal -0 0 -1
    outer loop
      vertex 3 10 -42
      vertex -0.768566 0.558395 -42
      vertex -3 17.5 -42
    endloop
  endfacet
  facet normal 0 0 -1
    outer loop
      vertex -3 17.5 -42
      vertex -0.768566 0.558395 -42
      vertex -0.95 0 -42
    endloop
  endfacet
  facet normal 0 0 -1
    outer loop
      vertex 3 10 -42
      vertex -3 17.5 -42
      vertex 3 17.5 -42
    endloop
  endfacet
  facet normal 0 0 -1
    outer loop
      vertex -3 17.5 -42
      vertex -0.95 0 -42
      vertex -3 -17.5 -42
    endloop
  endfacet
  facet normal 0 0 -1
    outer loop
      vertex 14 -10 -42
      vertex 11.11 0 -42
      vertex 14 10 -42
    endloop
  endfacet
  facet normal 0 0 -1
    outer loop
      vertex 14 -10 -42
      vertex 10.9286 -0.558395 -42
      vertex 11.11 0 -42
    endloop
  endfacet
  facet normal 0 0 -1
    outer loop
      vertex 14 -10 -42
      vertex 10.4536 -0.903503 -42
      vertex 10.9286 -0.558395 -42
    endloop
  endfacet
  facet normal 0 0 -1
    outer loop
      vertex 14 -10 -42
      vertex 9.86643 -0.903503 -42
      vertex 10.4536 -0.903503 -42
    endloop
  endfacet
  facet normal 0 0 -1
    outer loop
      vertex 3 -10 -42
      vertex 9.86643 -0.903503 -42
      vertex 14 -10 -42
    endloop
  endfacet
  facet normal -0 0 -1
    outer loop
      vertex 9.39143 -0.558395 -42
      vertex 3 -10 -42
      vertex 9.21 0 -42
    endloop
  endfacet
  facet normal -0 0 -1
    outer loop
      vertex 9.86643 -0.903503 -42
      vertex 3 -10 -42
      vertex 9.39143 -0.558395 -42
    endloop
  endfacet
  facet normal 0 0 -1
    outer loop
      vertex 10.9286 0.558395 -42
      vertex 14 10 -42
      vertex 11.11 0 -42
    endloop
  endfacet
  facet normal 0 0 -1
    outer loop
      vertex 10.4536 0.903503 -42
      vertex 14 10 -42
      vertex 10.9286 0.558395 -42
    endloop
  endfacet
  facet normal 0 0 -1
    outer loop
      vertex 9.86643 0.903503 -42
      vertex 14 10 -42
      vertex 10.4536 0.903503 -42
    endloop
  endfacet
  facet normal 0 0 -1
    outer loop
      vertex 3 10 -42
      vertex 9.86643 0.903503 -42
      vertex 9.39143 0.558395 -42
    endloop
  endfacet
  facet normal 0 0 -1
    outer loop
      vertex 3 10 -42
      vertex 9.21 0 -42
      vertex 3 -10 -42
    endloop
  endfacet
  facet normal 0 0 -1
    outer loop
      vertex 9.21 0 -42
      vertex 3 10 -42
      vertex 9.39143 0.558395 -42
    endloop
  endfacet
  facet normal 0 0 -1
    outer loop
      vertex 9.86643 0.903503 -42
      vertex 3 10 -42
      vertex 14 10 -42
    endloop
  endfacet
  facet normal 0 -1 0
    outer loop
      vertex 3 -10 -38.0005
      vertex 3 -10 -42
      vertex 6.94223 -10 -38.0005
    endloop
  endfacet
  facet normal 0 -1 0
    outer loop
      vertex 6.94223 -10 -38.0005
      vertex 14 -10 -38
      vertex 6.94173 -10 -38
    endloop
  endfacet
  facet normal 0 -1 0
    outer loop
      vertex 14 -10 -42
      vertex 6.94223 -10 -38.0005
      vertex 3 -10 -42
    endloop
  endfacet
  facet normal 0 -1 0
    outer loop
      vertex 6.94223 -10 -38.0005
      vertex 14 -10 -42
      vertex 14 -10 -38
    endloop
  endfacet
  facet normal 0 1 0
    outer loop
      vertex 14 10 -38
      vertex 6.94223 10 -38.0005
      vertex 6.94173 10 -38
    endloop
  endfacet
  facet normal 0 1 -0
    outer loop
      vertex 14 10 -42
      vertex 6.94223 10 -38.0005
      vertex 14 10 -38
    endloop
  endfacet
  facet normal 0 1 0
    outer loop
      vertex 3 10 -42
      vertex 6.94223 10 -38.0005
      vertex 14 10 -42
    endloop
  endfacet
  facet normal 0 1 0
    outer loop
      vertex 6.94223 10 -38.0005
      vertex 3 10 -42
      vertex 3 10 -38.0005
    endloop
  endfacet
  facet normal 1 0 0
    outer loop
      vertex 3 -17.5 -2.0005
      vertex 3 17.5 -2.0005
      vertex 3 17.5 18
    endloop
  endfacet
  facet normal 1 0 0
    outer loop
      vertex 3 17.5 -2.0005
      vertex 3 -17.5 -2.0005
      vertex 3 17.5 -17.1615
    endloop
  endfacet
  facet normal 1 0 0
    outer loop
      vertex 3 17.5 -17.1615
      vertex 3 10.0005 -34.0583
      vertex 3 17.5 -42
    endloop
  endfacet
  facet normal 1 0 0
    outer loop
      vertex 3 -17.5 -17.1615
      vertex 3 17.5 -17.1615
      vertex 3 -17.5 -2.0005
    endloop
  endfacet
  facet normal 1 0 0
    outer loop
      vertex 3 17.5 -17.1615
      vertex 3 -17.5 -17.1615
      vertex 3 10.0005 -34.0583
    endloop
  endfacet
  facet normal 1 0 0
    outer loop
      vertex 3 -17.5 -2.0005
      vertex 3 17.5 18
      vertex 3 -17.5 18
    endloop
  endfacet
  facet normal 1 -0 0
    outer loop
      vertex 3 10.0005 -38.0005
      vertex 3 17.5 -42
      vertex 3 10.0005 -34.0583
    endloop
  endfacet
  facet normal 1 0 0
    outer loop
      vertex 3 10 -42
      vertex 3 10.0005 -38.0005
      vertex 3 10 -38.0005
    endloop
  endfacet
  facet normal 1 0 0
    outer loop
      vertex 3 10.0005 -38.0005
      vertex 3 10 -42
      vertex 3 17.5 -42
    endloop
  endfacet
  facet normal 1 -0 0
    outer loop
      vertex 3 -10.0005 -38.0005
      vertex 3 -10 -42
      vertex 3 -10 -38.0005
    endloop
  endfacet
  facet normal 1 0 0
    outer loop
      vertex 3 10.0005 -34.0583
      vertex 3 -17.5 -17.1615
      vertex 3 -10.0005 -34.0583
    endloop
  endfacet
  facet normal 1 0 0
    outer loop
      vertex 3 -17.5 -42
      vertex 3 -10.0005 -34.0583
      vertex 3 -17.5 -17.1615
    endloop
  endfacet
  facet normal 1 0 0
    outer loop
      vertex 3 -10.0005 -34.0583
      vertex 3 -17.5 -42
      vertex 3 -10.0005 -38.0005
    endloop
  endfacet
  facet normal 1 0 0
    outer loop
      vertex 3 -10.0005 -38.0005
      vertex 3 -17.5 -42
      vertex 3 -10 -42
    endloop
  endfacet
  facet normal -0.951057 -0.309017 0
    outer loop
      vertex 0.95 0 -42
      vertex 0.768566 0.558395 -34.9995
      vertex 0.768566 0.558395 -42
    endloop
  endfacet
  facet normal -0.951057 -0.309017 0
    outer loop
      vertex 0.768566 0.558395 -34.9995
      vertex 0.95 0 -42
      vertex 0.95 0 -34.9995
    endloop
  endfacet
  facet normal 0.951057 -0.309017 0
    outer loop
      vertex -0.95 0 -34.9995
      vertex -0.768566 0.558395 -42
      vertex -0.768566 0.558395 -34.9995
    endloop
  endfacet
  facet normal 0.951057 -0.309017 0
    outer loop
      vertex -0.768566 0.558395 -42
      vertex -0.95 0 -34.9995
      vertex -0.95 0 -42
    endloop
  endfacet
  facet normal 0 -1 0
    outer loop
      vertex -0.293566 0.903503 -42
      vertex 0.293566 0.903503 -34.9995
      vertex -0.293566 0.903503 -34.9995
    endloop
  endfacet
  facet normal 0 -1 -0
    outer loop
      vertex 0.293566 0.903503 -34.9995
      vertex -0.293566 0.903503 -42
      vertex 0.293566 0.903503 -42
    endloop
  endfacet
  facet normal -0.587785 -0.809017 0
    outer loop
      vertex 0.293566 0.903503 -42
      vertex 0.768566 0.558395 -34.9995
      vertex 0.293566 0.903503 -34.9995
    endloop
  endfacet
  facet normal -0.587785 -0.809017 -0
    outer loop
      vertex 0.768566 0.558395 -34.9995
      vertex 0.293566 0.903503 -42
      vertex 0.768566 0.558395 -42
    endloop
  endfacet
  facet normal 0 0 -1
    outer loop
      vertex 0.768566 -0.558395 -34.9995
      vertex 0.768566 0.558395 -34.9995
      vertex 0.95 0 -34.9995
    endloop
  endfacet
  facet normal 0 0 -1
    outer loop
      vertex 0.293566 -0.903503 -34.9995
      vertex 0.768566 0.558395 -34.9995
      vertex 0.768566 -0.558395 -34.9995
    endloop
  endfacet
  facet normal 0 0 -1
    outer loop
      vertex 0.293566 -0.903503 -34.9995
      vertex 0.293566 0.903503 -34.9995
      vertex 0.768566 0.558395 -34.9995
    endloop
  endfacet
  facet normal 0 0 -1
    outer loop
      vertex -0.293566 -0.903503 -34.9995
      vertex 0.293566 0.903503 -34.9995
      vertex 0.293566 -0.903503 -34.9995
    endloop
  endfacet
  facet normal 0 0 -1
    outer loop
      vertex -0.293566 -0.903503 -34.9995
      vertex -0.293566 0.903503 -34.9995
      vertex 0.293566 0.903503 -34.9995
    endloop
  endfacet
  facet normal 0 0 -1
    outer loop
      vertex -0.768566 -0.558395 -34.9995
      vertex -0.293566 0.903503 -34.9995
      vertex -0.293566 -0.903503 -34.9995
    endloop
  endfacet
  facet normal 0 0 -1
    outer loop
      vertex -0.768566 -0.558395 -34.9995
      vertex -0.768566 0.558395 -34.9995
      vertex -0.293566 0.903503 -34.9995
    endloop
  endfacet
  facet normal 0 -0 -1
    outer loop
      vertex -0.768566 0.558395 -34.9995
      vertex -0.768566 -0.558395 -34.9995
      vertex -0.95 0 -34.9995
    endloop
  endfacet
  facet normal 0.587785 -0.809017 0
    outer loop
      vertex -0.768566 0.558395 -42
      vertex -0.293566 0.903503 -34.9995
      vertex -0.768566 0.558395 -34.9995
    endloop
  endfacet
  facet normal 0.587785 -0.809017 0
    outer loop
      vertex -0.293566 0.903503 -34.9995
      vertex -0.768566 0.558395 -42
      vertex -0.293566 0.903503 -42
    endloop
  endfacet
  facet normal 0 1 -0
    outer loop
      vertex 0.293566 -0.903503 -42
      vertex -0.293566 -0.903503 -34.9995
      vertex 0.293566 -0.903503 -34.9995
    endloop
  endfacet
  facet normal 0 1 0
    outer loop
      vertex -0.293566 -0.903503 -34.9995
      vertex 0.293566 -0.903503 -42
      vertex -0.293566 -0.903503 -42
    endloop
  endfacet
  facet normal -0.951057 0.309017 0
    outer loop
      vertex 0.768566 -0.558395 -42
      vertex 0.95 0 -34.9995
      vertex 0.95 0 -42
    endloop
  endfacet
  facet normal -0.951057 0.309017 0
    outer loop
      vertex 0.95 0 -34.9995
      vertex 0.768566 -0.558395 -42
      vertex 0.768566 -0.558395 -34.9995
    endloop
  endfacet
  facet normal -0.587785 0.809017 0
    outer loop
      vertex 0.768566 -0.558395 -42
      vertex 0.293566 -0.903503 -34.9995
      vertex 0.768566 -0.558395 -34.9995
    endloop
  endfacet
  facet normal -0.587785 0.809017 0
    outer loop
      vertex 0.293566 -0.903503 -34.9995
      vertex 0.768566 -0.558395 -42
      vertex 0.293566 -0.903503 -42
    endloop
  endfacet
  facet normal 0.587785 0.809017 -0
    outer loop
      vertex -0.293566 -0.903503 -42
      vertex -0.768566 -0.558395 -34.9995
      vertex -0.293566 -0.903503 -34.9995
    endloop
  endfacet
  facet normal 0.587785 0.809017 0
    outer loop
      vertex -0.768566 -0.558395 -34.9995
      vertex -0.293566 -0.903503 -42
      vertex -0.768566 -0.558395 -42
    endloop
  endfacet
  facet normal 0.951057 0.309017 0
    outer loop
      vertex -0.768566 -0.558395 -34.9995
      vertex -0.95 0 -42
      vertex -0.95 0 -34.9995
    endloop
  endfacet
  facet normal 0.951057 0.309017 0
    outer loop
      vertex -0.95 0 -42
      vertex -0.768566 -0.558395 -34.9995
      vertex -0.768566 -0.558395 -42
    endloop
  endfacet
  facet normal -0.951057 -0.309017 0
    outer loop
      vertex 11.11 0 -42
      vertex 10.9286 0.558395 -38
      vertex 10.9286 0.558395 -42
    endloop
  endfacet
  facet normal -0.951057 -0.309017 0
    outer loop
      vertex 10.9286 0.558395 -38
      vertex 11.11 0 -42
      vertex 11.11 0 -38
    endloop
  endfacet
  facet normal 0.951056 -0.309018 0
    outer loop
      vertex 9.21 0 -38
      vertex 9.39143 0.558395 -42
      vertex 9.39143 0.558395 -38
    endloop
  endfacet
  facet normal 0.951056 -0.309018 0
    outer loop
      vertex 9.39143 0.558395 -42
      vertex 9.21 0 -38
      vertex 9.21 0 -42
    endloop
  endfacet
  facet normal 0 1 -0
    outer loop
      vertex 10.4536 -0.903503 -42
      vertex 9.86643 -0.903503 -38
      vertex 10.4536 -0.903503 -38
    endloop
  endfacet
  facet normal 0 1 0
    outer loop
      vertex 9.86643 -0.903503 -38
      vertex 10.4536 -0.903503 -42
      vertex 9.86643 -0.903503 -42
    endloop
  endfacet
  facet normal 0 -1 0
    outer loop
      vertex 9.86643 0.903503 -42
      vertex 10.4536 0.903503 -38
      vertex 9.86643 0.903503 -38
    endloop
  endfacet
  facet normal 0 -1 -0
    outer loop
      vertex 10.4536 0.903503 -38
      vertex 9.86643 0.903503 -42
      vertex 10.4536 0.903503 -42
    endloop
  endfacet
  facet normal -0.587785 -0.809017 0
    outer loop
      vertex 10.4536 0.903503 -42
      vertex 10.9286 0.558395 -38
      vertex 10.4536 0.903503 -38
    endloop
  endfacet
  facet normal -0.587785 -0.809017 -0
    outer loop
      vertex 10.9286 0.558395 -38
      vertex 10.4536 0.903503 -42
      vertex 10.9286 0.558395 -42
    endloop
  endfacet
  facet normal 0.587786 -0.809016 0
    outer loop
      vertex 9.39143 0.558395 -42
      vertex 9.86643 0.903503 -38
      vertex 9.39143 0.558395 -38
    endloop
  endfacet
  facet normal 0.587786 -0.809016 0
    outer loop
      vertex 9.86643 0.903503 -38
      vertex 9.39143 0.558395 -42
      vertex 9.86643 0.903503 -42
    endloop
  endfacet
  facet normal -0.587785 0.809017 0
    outer loop
      vertex 10.9286 -0.558395 -42
      vertex 10.4536 -0.903503 -38
      vertex 10.9286 -0.558395 -38
    endloop
  endfacet
  facet normal -0.587785 0.809017 0
    outer loop
      vertex 10.4536 -0.903503 -38
      vertex 10.9286 -0.558395 -42
      vertex 10.4536 -0.903503 -42
    endloop
  endfacet
  facet normal -0.951057 0.309017 0
    outer loop
      vertex 10.9286 -0.558395 -42
      vertex 11.11 0 -38
      vertex 11.11 0 -42
    endloop
  endfacet
  facet normal -0.951057 0.309017 0
    outer loop
      vertex 11.11 0 -38
      vertex 10.9286 -0.558395 -42
      vertex 10.9286 -0.558395 -38
    endloop
  endfacet
  facet normal 0.587786 0.809016 -0
    outer loop
      vertex 9.86643 -0.903503 -42
      vertex 9.39143 -0.558395 -38
      vertex 9.86643 -0.903503 -38
    endloop
  endfacet
  facet normal 0.587786 0.809016 0
    outer loop
      vertex 9.39143 -0.558395 -38
      vertex 9.86643 -0.903503 -42
      vertex 9.39143 -0.558395 -42
    endloop
  endfacet
  facet normal 0.951056 0.309018 0
    outer loop
      vertex 9.39143 -0.558395 -38
      vertex 9.21 0 -42
      vertex 9.21 0 -38
    endloop
  endfacet
  facet normal 0.951056 0.309018 0
    outer loop
      vertex 9.21 0 -42
      vertex 9.39143 -0.558395 -38
      vertex 9.39143 -0.558395 -42
    endloop
  endfacet
  facet normal 1 -0 0
    outer loop
      vertex 4 -21 1.5
      vertex 4 -18.5005 -2
      vertex 4 -18.5005 1.5
    endloop
  endfacet
  facet normal 1 0 0
    outer loop
      vertex 4 -18.5005 -2
      vertex 4 -21 1.5
      vertex 4 -21 -2
    endloop
  endfacet
  facet normal -1 0 0
    outer loop
      vertex 10 -21 -2
      vertex 10 -17.5 1.5
      vertex 10 -17.5 -2
    endloop
  endfacet
  facet normal -1 -0 0
    outer loop
      vertex 10 -17.5 1.5
      vertex 10 -21 -2
      vertex 10 -21 1.5
    endloop
  endfacet
  facet normal 0 0 1
    outer loop
      vertex 4.5005 -18.5005 -2
      vertex 10 -17.5 -2
      vertex 4.5005 -17.5 -2
    endloop
  endfacet
  facet normal 0 0 1
    outer loop
      vertex 10 -17.5 -2
      vertex 4.5005 -18.5005 -2
      vertex 10 -21 -2
    endloop
  endfacet
  facet normal 0 0 1
    outer loop
      vertex 4 -21 -2
      vertex 4.5005 -18.5005 -2
      vertex 4 -18.5005 -2
    endloop
  endfacet
  facet normal 0 0 1
    outer loop
      vertex 4.5005 -18.5005 -2
      vertex 4 -21 -2
      vertex 10 -21 -2
    endloop
  endfacet
  facet normal 1 -0 0
    outer loop
      vertex 2.4995 -18.5005 1.5
      vertex 2.4995 -17.5 -0.9995
      vertex 2.4995 -17.5 1.5
    endloop
  endfacet
  facet normal 1 0 0
    outer loop
      vertex 2.4995 -17.5 -0.9995
      vertex 2.4995 -18.5005 1.5
      vertex 2.4995 -18.5005 -0.9995
    endloop
  endfacet
  facet normal 0 1 0
    outer loop
      vertex 4.5005 -18.5005 -2
      vertex 4.5005 -18.5005 -2.0005
      vertex 4 -18.5005 -2
    endloop
  endfacet
  facet normal 0 1 0
    outer loop
      vertex 4 -18.5005 1.5
      vertex 2.4995 -18.5005 -0.9995
      vertex 2.4995 -18.5005 1.5
    endloop
  endfacet
  facet normal 0 1 -0
    outer loop
      vertex 4 -18.5005 -2
      vertex 2.4995 -18.5005 -0.9995
      vertex 4 -18.5005 1.5
    endloop
  endfacet
  facet normal 0 1 0
    outer loop
      vertex -0.5005 -18.5005 -2.0005
      vertex 2.4995 -18.5005 -0.9995
      vertex 4 -18.5005 -2
    endloop
  endfacet
  facet normal 0 1 0
    outer loop
      vertex 2.4995 -18.5005 -0.9995
      vertex -0.5005 -18.5005 -2.0005
      vertex -0.5005 -18.5005 -0.9995
    endloop
  endfacet
  facet normal 0 1 0
    outer loop
      vertex -0.5005 -18.5005 -2.0005
      vertex 4 -18.5005 -2
      vertex 4.5005 -18.5005 -2.0005
    endloop
  endfacet
  facet normal 1 -0 0
    outer loop
      vertex -0.5005 -18.5005 -0.9995
      vertex -0.5005 -17.5 -2.0005
      vertex -0.5005 -17.5 -0.9995
    endloop
  endfacet
  facet normal 1 0 0
    outer loop
      vertex -0.5005 -17.5 -2.0005
      vertex -0.5005 -18.5005 -0.9995
      vertex -0.5005 -18.5005 -2.0005
    endloop
  endfacet
  facet normal 0 0 -1
    outer loop
      vertex -0.5005 -18.5005 -0.9995
      vertex 2.4995 -17.5 -0.9995
      vertex 2.4995 -18.5005 -0.9995
    endloop
  endfacet
  facet normal -0 0 -1
    outer loop
      vertex 2.4995 -17.5 -0.9995
      vertex -0.5005 -18.5005 -0.9995
      vertex -0.5005 -17.5 -0.9995
    endloop
  endfacet
  facet normal -1 0 0
    outer loop
      vertex 4.5005 -18.5005 -2.0005
      vertex 4.5005 -17.5 -2
      vertex 4.5005 -17.5 -2.0005
    endloop
  endfacet
  facet normal -1 -0 0
    outer loop
      vertex 4.5005 -17.5 -2
      vertex 4.5005 -18.5005 -2.0005
      vertex 4.5005 -18.5005 -2
    endloop
  endfacet
  facet normal -0 0 1
    outer loop
      vertex 3 -17.5 -2.0005
      vertex 4.5005 -18.5005 -2.0005
      vertex 4.5005 -17.5 -2.0005
    endloop
  endfacet
  facet normal 0 0 1
    outer loop
      vertex -0.5005 -18.5005 -2.0005
      vertex 3 -17.5 -2.0005
      vertex -0.5005 -17.5 -2.0005
    endloop
  endfacet
  facet normal 0 0 1
    outer loop
      vertex 3 -17.5 -2.0005
      vertex -0.5005 -18.5005 -2.0005
      vertex 4.5005 -18.5005 -2.0005
    endloop
  endfacet
  facet normal 0.707107 7.40179e-008 -0.707107
    outer loop
      vertex 4.39 -21 -15.7715
      vertex 3 -17.5 -17.1615
      vertex 15 -17.5 -5.16152
    endloop
  endfacet
  facet normal 0.707107 0 -0.707107
    outer loop
      vertex 4.39 -21 -15.7715
      vertex 15 -17.5 -5.16152
      vertex 15 -21 -5.16152
    endloop
  endfacet
  facet normal 0.707107 1.9153e-007 -0.707107
    outer loop
      vertex 3 -17.5 -17.1615
      vertex 4.39 -21 -15.7715
      vertex 0.89 -17.5 -19.2715
    endloop
  endfacet
  facet normal -0 -0.707107 -0.707107
    outer loop
      vertex 0.89 -17.5 -19.2715
      vertex -3 -21 -15.7715
      vertex -3 -17.5 -19.2715
    endloop
  endfacet
  facet normal 0 -0.707107 -0.707107
    outer loop
      vertex -3 -21 -15.7715
      vertex 0.89 -17.5 -19.2715
      vertex 4.39 -21 -15.7715
    endloop
  endfacet
  facet normal 0 0 1
    outer loop
      vertex 2.4995 -17.5 1.5
      vertex -3 -17.5 1.5
      vertex 2.4995 -18.5005 1.5
    endloop
  endfacet
  facet normal -0 0 1
    outer loop
      vertex 2.4995 -18.5005 1.5
      vertex 4 -21 1.5
      vertex 4 -18.5005 1.5
    endloop
  endfacet
  facet normal 0 0 1
    outer loop
      vertex -3 -21 1.5
      vertex 2.4995 -18.5005 1.5
      vertex -3 -17.5 1.5
    endloop
  endfacet
  facet normal 0 0 1
    outer loop
      vertex 2.4995 -18.5005 1.5
      vertex -3 -21 1.5
      vertex 4 -21 1.5
    endloop
  endfacet
  facet normal -0 0 1
    outer loop
      vertex 10 -17.5 1.5
      vertex 15 -21 1.5
      vertex 15 -17.5 1.5
    endloop
  endfacet
  facet normal 0 0 1
    outer loop
      vertex 15 -21 1.5
      vertex 10 -17.5 1.5
      vertex 10 -21 1.5
    endloop
  endfacet
  facet normal 1 -0 0
    outer loop
      vertex 15 -21 1.5
      vertex 15 -17.5 -5.16152
      vertex 15 -17.5 1.5
    endloop
  endfacet
  facet normal 1 0 0
    outer loop
      vertex 15 -17.5 -5.16152
      vertex 15 -21 1.5
      vertex 15 -21 -5.16152
    endloop
  endfacet
  facet normal 0 -1 0
    outer loop
      vertex -3 -21 1.5
      vertex 4 -21 -2
      vertex 4 -21 1.5
    endloop
  endfacet
  facet normal 0 -1 0
    outer loop
      vertex 4.39 -21 -15.7715
      vertex 10 -21 -2
      vertex 4 -21 -2
    endloop
  endfacet
  facet normal 0 -1 0
    outer loop
      vertex -3 -21 -15.7715
      vertex 4 -21 -2
      vertex -3 -21 1.5
    endloop
  endfacet
  facet normal 0 -1 0
    outer loop
      vertex 4.39 -21 -15.7715
      vertex 4 -21 -2
      vertex -3 -21 -15.7715
    endloop
  endfacet
  facet normal 0 -1 -0
    outer loop
      vertex 10 -21 -2
      vertex 4.39 -21 -15.7715
      vertex 15 -21 -5.16152
    endloop
  endfacet
  facet normal 0 -1 0
    outer loop
      vertex 10 -21 -2
      vertex 15 -21 1.5
      vertex 10 -21 1.5
    endloop
  endfacet
  facet normal 0 -1 -0
    outer loop
      vertex 15 -21 1.5
      vertex 10 -21 -2
      vertex 15 -21 -5.16152
    endloop
  endfacet
  facet normal 1 -0 0
    outer loop
      vertex 4 18.5005 1.5
      vertex 4 21 -2
      vertex 4 21 1.5
    endloop
  endfacet
  facet normal 1 0 0
    outer loop
      vertex 4 21 -2
      vertex 4 18.5005 1.5
      vertex 4 18.5005 -2
    endloop
  endfacet
  facet normal -1 0 0
    outer loop
      vertex 10 17.5 -2
      vertex 10 21 1.5
      vertex 10 21 -2
    endloop
  endfacet
  facet normal -1 -0 0
    outer loop
      vertex 10 21 1.5
      vertex 10 17.5 -2
      vertex 10 17.5 1.5
    endloop
  endfacet
  facet normal 0 0 1
    outer loop
      vertex 10 21 -2
      vertex 4.5005 18.5005 -2
      vertex 10 17.5 -2
    endloop
  endfacet
  facet normal -0 0 1
    outer loop
      vertex 4 21 -2
      vertex 4.5005 18.5005 -2
      vertex 10 21 -2
    endloop
  endfacet
  facet normal 0 0 1
    outer loop
      vertex 4.5005 18.5005 -2
      vertex 4 21 -2
      vertex 4 18.5005 -2
    endloop
  endfacet
  facet normal 0 0 1
    outer loop
      vertex 10 17.5 -2
      vertex 4.5005 18.5005 -2
      vertex 4.5005 17.5 -2
    endloop
  endfacet
  facet normal 1 -0 0
    outer loop
      vertex 2.4995 17.5 1.5
      vertex 2.4995 18.5005 -0.9995
      vertex 2.4995 18.5005 1.5
    endloop
  endfacet
  facet normal 1 0 0
    outer loop
      vertex 2.4995 18.5005 -0.9995
      vertex 2.4995 17.5 1.5
      vertex 2.4995 17.5 -0.9995
    endloop
  endfacet
  facet normal 0 -1 0
    outer loop
      vertex -0.5005 18.5005 -2.0005
      vertex 2.4995 18.5005 -0.9995
      vertex -0.5005 18.5005 -0.9995
    endloop
  endfacet
  facet normal 0 -1 -0
    outer loop
      vertex 2.4995 18.5005 -0.9995
      vertex -0.5005 18.5005 -2.0005
      vertex 4 18.5005 -2
    endloop
  endfacet
  facet normal 0 -1 0
    outer loop
      vertex 4.5005 18.5005 -2.0005
      vertex 4 18.5005 -2
      vertex -0.5005 18.5005 -2.0005
    endloop
  endfacet
  facet normal 0 -1 0
    outer loop
      vertex 4 18.5005 -2
      vertex 4.5005 18.5005 -2.0005
      vertex 4.5005 18.5005 -2
    endloop
  endfacet
  facet normal 0 -1 0
    outer loop
      vertex 2.4995 18.5005 -0.9995
      vertex 4 18.5005 1.5
      vertex 2.4995 18.5005 1.5
    endloop
  endfacet
  facet normal 0 -1 -0
    outer loop
      vertex 4 18.5005 1.5
      vertex 2.4995 18.5005 -0.9995
      vertex 4 18.5005 -2
    endloop
  endfacet
  facet normal 1 -0 0
    outer loop
      vertex -0.5005 17.5 -0.9995
      vertex -0.5005 18.5005 -2.0005
      vertex -0.5005 18.5005 -0.9995
    endloop
  endfacet
  facet normal 1 0 0
    outer loop
      vertex -0.5005 18.5005 -2.0005
      vertex -0.5005 17.5 -0.9995
      vertex -0.5005 17.5 -2.0005
    endloop
  endfacet
  facet normal 0 0 -1
    outer loop
      vertex -0.5005 17.5 -0.9995
      vertex 2.4995 18.5005 -0.9995
      vertex 2.4995 17.5 -0.9995
    endloop
  endfacet
  facet normal -0 0 -1
    outer loop
      vertex 2.4995 18.5005 -0.9995
      vertex -0.5005 17.5 -0.9995
      vertex -0.5005 18.5005 -0.9995
    endloop
  endfacet
  facet normal -1 0 0
    outer loop
      vertex 4.5005 17.5 -2.0005
      vertex 4.5005 18.5005 -2
      vertex 4.5005 18.5005 -2.0005
    endloop
  endfacet
  facet normal -1 -0 0
    outer loop
      vertex 4.5005 18.5005 -2
      vertex 4.5005 17.5 -2.0005
      vertex 4.5005 17.5 -2
    endloop
  endfacet
  facet normal 0 0 1
    outer loop
      vertex 4.5005 18.5005 -2.0005
      vertex 3 17.5 -2.0005
      vertex 4.5005 17.5 -2.0005
    endloop
  endfacet
  facet normal -0 0 1
    outer loop
      vertex -0.5005 18.5005 -2.0005
      vertex 3 17.5 -2.0005
      vertex 4.5005 18.5005 -2.0005
    endloop
  endfacet
  facet normal 0 0 1
    outer loop
      vertex 3 17.5 -2.0005
      vertex -0.5005 18.5005 -2.0005
      vertex -0.5005 17.5 -2.0005
    endloop
  endfacet
  facet normal 0.707107 0 -0.707107
    outer loop
      vertex 15 17.5 -5.16152
      vertex 4.39 21 -15.7715
      vertex 15 21 -5.16152
    endloop
  endfacet
  facet normal 0.707107 -7.40179e-008 -0.707107
    outer loop
      vertex 3 17.5 -17.1615
      vertex 4.39 21 -15.7715
      vertex 15 17.5 -5.16152
    endloop
  endfacet
  facet normal 0.707107 -1.9153e-007 -0.707107
    outer loop
      vertex 4.39 21 -15.7715
      vertex 3 17.5 -17.1615
      vertex 0.89 17.5 -19.2715
    endloop
  endfacet
  facet normal 0 0.707107 -0.707107
    outer loop
      vertex 0.89 17.5 -19.2715
      vertex -3 21 -15.7715
      vertex 4.39 21 -15.7715
    endloop
  endfacet
  facet normal 0 0.707107 -0.707107
    outer loop
      vertex -3 21 -15.7715
      vertex 0.89 17.5 -19.2715
      vertex -3 17.5 -19.2715
    endloop
  endfacet
  facet normal 0 0 1
    outer loop
      vertex 4 21 1.5
      vertex 2.4995 18.5005 1.5
      vertex 4 18.5005 1.5
    endloop
  endfacet
  facet normal -0 0 1
    outer loop
      vertex -3 21 1.5
      vertex 2.4995 18.5005 1.5
      vertex 4 21 1.5
    endloop
  endfacet
  facet normal 0 0 1
    outer loop
      vertex -3 17.5 1.5
      vertex 2.4995 18.5005 1.5
      vertex -3 21 1.5
    endloop
  endfacet
  facet normal 0 0 1
    outer loop
      vertex 2.4995 18.5005 1.5
      vertex -3 17.5 1.5
      vertex 2.4995 17.5 1.5
    endloop
  endfacet
  facet normal -0 0 1
    outer loop
      vertex 10 21 1.5
      vertex 15 17.5 1.5
      vertex 15 21 1.5
    endloop
  endfacet
  facet normal 0 0 1
    outer loop
      vertex 15 17.5 1.5
      vertex 10 21 1.5
      vertex 10 17.5 1.5
    endloop
  endfacet
  facet normal 1 -0 0
    outer loop
      vertex 15 17.5 1.5
      vertex 15 21 -5.16152
      vertex 15 21 1.5
    endloop
  endfacet
  facet normal 1 0 0
    outer loop
      vertex 15 21 -5.16152
      vertex 15 17.5 1.5
      vertex 15 17.5 -5.16152
    endloop
  endfacet
  facet normal 0 1 0
    outer loop
      vertex 15 21 1.5
      vertex 10 21 -2
      vertex 10 21 1.5
    endloop
  endfacet
  facet normal 0 1 0
    outer loop
      vertex 4.39 21 -15.7715
      vertex 10 21 -2
      vertex 15 21 -5.16152
    endloop
  endfacet
  facet normal 0 1 -0
    outer loop
      vertex 15 21 -5.16152
      vertex 10 21 -2
      vertex 15 21 1.5
    endloop
  endfacet
  facet normal 0 1 -0
    outer loop
      vertex 4 21 -2
      vertex -3 21 1.5
      vertex 4 21 1.5
    endloop
  endfacet
  facet normal 0 1 0
    outer loop
      vertex 10 21 -2
      vertex 4.39 21 -15.7715
      vertex 4 21 -2
    endloop
  endfacet
  facet normal 0 1 0
    outer loop
      vertex -3 21 -15.7715
      vertex 4 21 -2
      vertex 4.39 21 -15.7715
    endloop
  endfacet
  facet normal 0 1 0
    outer loop
      vertex 4 21 -2
      vertex -3 21 -15.7715
      vertex -3 21 1.5
    endloop
  endfacet
  facet normal 0 1 -0
    outer loop
      vertex -3 1.5 -15
      vertex -3.14645 1.5 15
      vertex -3 1.5 15
    endloop
  endfacet
  facet normal 0 1 0
    outer loop
      vertex -3.14645 1.5 15
      vertex -3 1.5 -15
      vertex -4 1.5 15
    endloop
  endfacet
  facet normal 0 1 0
    outer loop
      vertex -4 1.5 15
      vertex -3 1.5 -15
      vertex -4 1.5 -15
    endloop
  endfacet
  facet normal 0 -1 0
    outer loop
      vertex -4 -1.5 -15
      vertex -3.14645 -1.5 15
      vertex -4 -1.5 15
    endloop
  endfacet
  facet normal 0 -1 0
    outer loop
      vertex -3 -1.5 -15
      vertex -3.14645 -1.5 15
      vertex -4 -1.5 -15
    endloop
  endfacet
  facet normal 0 -1 0
    outer loop
      vertex -3.14645 -1.5 15
      vertex -3 -1.5 -15
      vertex -3 -1.5 15
    endloop
  endfacet
endsolid OpenSCAD_Model
